<svg width="124" height="44" viewBox="0 0 124 44" fill="none" xmlns="http://www.w3.org/2000/svg">
<path d="M64.2527 18.2094V5.72578H68.7482V4.16797H58.0184V5.72578H62.4927V18.2094H64.2527Z" fill="white"/>
<path d="M77.0094 18.2094V11.2202C77.0094 8.75721 75.2282 7.78884 73.044 7.78884C71.3688 7.78884 70.0541 8.33618 68.9515 9.47297L69.6936 10.5676C70.6055 9.57822 71.6021 9.15719 72.832 9.15719C74.3163 9.15719 75.419 9.9361 75.419 11.2834V13.1149C74.592 12.1886 73.4257 11.7465 72.0262 11.7465C70.2874 11.7465 68.4637 12.7991 68.4637 15.0937C68.4637 17.3042 70.3086 18.462 72.0262 18.462C73.4045 18.462 74.592 17.9778 75.419 17.0515V18.2094H77.0094ZM72.6199 17.3252C71.1144 17.3252 70.0753 16.3989 70.0753 15.0937C70.0753 13.8096 71.1144 12.8833 72.6199 12.8833C73.7226 12.8833 74.8041 13.3044 75.419 14.1254V16.0621C74.8041 16.9042 73.7226 17.3252 72.6199 17.3252Z" fill="white"/>
<path d="M83.4837 18.462C86.1132 18.462 87.4915 17.0936 87.4915 15.3885C87.4915 11.4308 81.1512 12.8833 81.1512 10.6729C81.1512 9.76769 82.0206 9.07299 83.4201 9.07299C84.756 9.07299 85.8587 9.62033 86.4737 10.3571L87.2158 9.26245C86.41 8.44144 85.1801 7.78884 83.4201 7.78884C80.9815 7.78884 79.6244 9.11509 79.6244 10.715C79.6244 14.4832 85.9647 12.9675 85.9647 15.4306C85.9647 16.441 85.0953 17.1778 83.5261 17.1778C82.1266 17.1778 80.8331 16.5042 80.1545 15.7253L79.3487 16.8621C80.3878 17.9357 81.7873 18.462 83.4837 18.462Z" fill="white"/>
<path d="M90.881 6.5889C91.4747 6.5889 91.9413 6.12577 91.9413 5.53632C91.9413 4.94688 91.4747 4.46269 90.881 4.46269C90.2873 4.46269 89.7995 4.94688 89.7995 5.53632C89.7995 6.12577 90.2873 6.5889 90.881 6.5889ZM88.6333 22.3355C90.6053 22.3355 91.6656 21.1987 91.6656 19.1988V8.04146H90.0752V19.1988C90.0752 20.4829 89.3754 21.0303 88.4212 21.0303C87.7851 21.0303 87.3185 20.7566 86.9581 20.3987L86.4067 21.5776C87.0429 22.0829 87.5942 22.3355 88.6333 22.3355Z" fill="white"/>
<path d="M102.832 18.2094V11.2202C102.832 8.75721 101.051 7.78884 98.867 7.78884C97.1918 7.78884 95.8771 8.33618 94.7745 9.47297L95.5166 10.5676C96.4285 9.57822 97.4251 9.15719 98.655 9.15719C100.139 9.15719 101.242 9.9361 101.242 11.2834V13.1149C100.415 12.1886 99.2487 11.7465 97.8492 11.7465C96.1104 11.7465 94.2867 12.7991 94.2867 15.0937C94.2867 17.3042 96.1316 18.462 97.8492 18.462C99.2275 18.462 100.415 17.9778 101.242 17.0515V18.2094H102.832ZM98.4429 17.3252C96.9374 17.3252 95.8983 16.3989 95.8983 15.0937C95.8983 13.8096 96.9374 12.8833 98.4429 12.8833C99.5456 12.8833 100.627 13.3044 101.242 14.1254V16.0621C100.627 16.9042 99.5456 17.3252 98.4429 17.3252Z" fill="white"/>
<path d="M113.352 18.2094V12.6307H117.275C120.096 12.6307 121.707 10.694 121.707 8.39934C121.707 6.10471 120.117 4.16797 117.275 4.16797H111.592V18.2094H113.352ZM117.063 11.0729H113.352V5.72578H117.063C118.739 5.72578 119.884 6.82047 119.884 8.39934C119.884 9.9782 118.739 11.0729 117.063 11.0729Z" fill="white"/>
<path d="M122.835 18.4199C123.471 18.4199 124.001 17.8936 124.001 17.262C124.001 16.6305 123.471 16.1042 122.835 16.1042C122.198 16.1042 121.668 16.6305 121.668 17.262C121.668 17.8936 122.198 18.4199 122.835 18.4199Z" fill="white"/>
<path d="M43.7441 42.7229C46.2463 42.7229 47.9427 41.544 49.1301 39.9231L47.6458 39.1231C46.84 40.302 45.3556 41.1651 43.7441 41.1651C40.6481 41.1651 38.2943 38.7863 38.2943 35.4601C38.2943 32.0919 40.6481 29.7552 43.7441 29.7552C45.3556 29.7552 46.84 30.5972 47.6458 31.7972L49.1089 30.9762C47.9851 29.3762 46.2463 28.1974 43.7441 28.1974C39.6727 28.1974 36.4707 31.1446 36.4707 35.4601C36.4707 39.7757 39.6727 42.7229 43.7441 42.7229Z" fill="white"/>
<path d="M55.9536 42.7229C57.6076 42.7229 58.9859 42.1545 60.0249 41.1441L59.2616 40.1125C58.4346 40.9546 57.2683 41.4177 56.0808 41.4177C53.8755 41.4177 52.5395 39.8178 52.4123 37.9021H60.6823V37.5021C60.6823 34.4497 58.8587 32.0498 55.7627 32.0498C52.8364 32.0498 50.7159 34.4286 50.7159 37.3758C50.7159 40.5546 52.9 42.7229 55.9536 42.7229ZM59.1131 36.7232H52.3911C52.4759 35.1865 53.5574 33.355 55.7415 33.355C58.0741 33.355 59.0919 35.2286 59.1131 36.7232Z" fill="white"/>
<path d="M64.8486 42.4703V35.2707C65.3151 34.4497 66.651 33.6497 67.6477 33.6497C67.8809 33.6497 68.0718 33.6708 68.2626 33.6918V32.0708C66.8631 32.0708 65.6756 32.8708 64.8486 33.9234V32.3024H63.2582V42.4703H64.8486Z" fill="white"/>
<path d="M78.2519 42.4703V35.4812C78.2519 33.0182 76.4707 32.0498 74.2865 32.0498C72.6113 32.0498 71.2966 32.5971 70.1939 33.7339L70.9361 34.8286C71.8479 33.8392 72.8446 33.4181 74.0745 33.4181C75.5588 33.4181 76.6615 34.197 76.6615 35.5443V37.3758C75.8345 36.4496 74.6682 36.0075 73.2687 36.0075C71.5299 36.0075 69.7062 37.0601 69.7062 39.3547C69.7062 41.5651 71.5511 42.7229 73.2687 42.7229C74.647 42.7229 75.8345 42.2387 76.6615 41.3125V42.4703H78.2519ZM73.8624 41.5862C72.3569 41.5862 71.3178 40.6599 71.3178 39.3547C71.3178 38.0705 72.3569 37.1443 73.8624 37.1443C74.9651 37.1443 76.0465 37.5653 76.6615 38.3863V40.3231C76.0465 41.1651 74.9651 41.5862 73.8624 41.5862Z" fill="white"/>
<path d="M95.4136 42.4703V35.1233C95.4136 33.0813 94.417 32.0498 92.5509 32.0498C91.0665 32.0498 89.6882 33.0182 89.1157 33.9444C88.8188 32.8919 87.9282 32.0498 86.3802 32.0498C84.8535 32.0498 83.4963 33.1234 83.051 33.776V32.3024H81.4606V42.4703H83.051V35.0391C83.6024 34.2181 84.705 33.4602 85.7441 33.4602C87.1012 33.4602 87.6313 34.2813 87.6313 35.5654V42.4703H89.2217V35.0181C89.7518 34.1971 90.8757 33.4602 91.936 33.4602C93.2719 33.4602 93.8232 34.2813 93.8232 35.5654V42.4703H95.4136Z" fill="white"/>
<path d="M99.392 30.8499C99.9858 30.8499 100.452 30.3867 100.452 29.7973C100.452 29.2078 99.9858 28.7236 99.392 28.7236C98.7983 28.7236 98.3106 29.2078 98.3106 29.7973C98.3106 30.3867 98.7983 30.8499 99.392 30.8499ZM100.177 42.4703V32.3024H98.5862V42.4703H100.177Z" fill="white"/>
<path d="M107.866 42.7229C109.732 42.7229 110.835 41.9651 111.619 40.9546L110.559 39.9862C109.88 40.8915 109.011 41.3125 107.951 41.3125C105.788 41.3125 104.409 39.6284 104.409 37.3758C104.409 35.1233 105.788 33.4602 107.951 33.4602C109.011 33.4602 109.88 33.8392 110.559 34.7654L111.619 33.8181C110.835 32.8076 109.732 32.0498 107.866 32.0498C104.812 32.0498 102.755 34.3655 102.755 37.3758C102.755 40.3862 104.812 42.7229 107.866 42.7229Z" fill="white"/>
<path d="M117.134 42.7229C119.764 42.7229 121.142 41.3546 121.142 39.6494C121.142 35.6917 114.802 37.1443 114.802 34.9339C114.802 34.0286 115.671 33.3339 117.071 33.3339C118.407 33.3339 119.509 33.8813 120.124 34.6181L120.867 33.5234C120.061 32.7024 118.831 32.0498 117.071 32.0498C114.632 32.0498 113.275 33.376 113.275 34.976C113.275 38.7442 119.615 37.2285 119.615 39.6915C119.615 40.702 118.746 41.4388 117.177 41.4388C115.777 41.4388 114.484 40.7651 113.805 39.9862L112.999 41.123C114.038 42.1966 115.438 42.7229 117.134 42.7229Z" fill="white"/>
<path d="M23.9653 39.2242C23.8966 40.0804 23.761 40.9284 23.5599 41.7585C23.2045 43.1434 23.0549 43.8359 21.92 43.7597C21.0409 43.7112 20.8476 43.2265 20.355 42.3748C19.533 40.8752 19.0318 39.1861 18.8897 37.4377C18.7763 36.1538 18.7346 34.8634 18.765 33.5738C18.765 31.905 18.8148 30.2293 18.8398 28.5605C18.8398 28.332 18.8959 28.1035 18.9021 27.868C18.9021 26.9678 18.9582 26.0746 18.9894 25.1744L19.1391 20.3758C19.1391 19.434 19.1391 18.4854 19.2264 17.5506C19.3199 16.2349 19.27 14.9054 19.3885 13.5898C19.4758 12.655 19.3324 11.6994 19.3885 10.7576C19.437 9.68578 19.6067 8.62494 19.8936 7.60009C19.9867 7.28842 20.1101 6.98891 20.2614 6.70683C20.3611 6.5445 20.4908 6.40761 20.6418 6.30521C20.6713 6.28104 20.7053 6.26459 20.7414 6.25708C20.7774 6.24957 20.8145 6.2512 20.8499 6.26185C20.8852 6.27251 20.918 6.2919 20.9457 6.31859C20.9734 6.34529 20.9952 6.3786 21.0097 6.41601C21.1278 6.61386 21.2222 6.82802 21.2903 7.05305C21.5051 7.88277 21.682 8.72402 21.8203 9.57357C22.4999 14.4899 22.7119 19.3094 23.2981 24.2534C23.6402 27.1155 23.8483 29.9954 23.9216 32.8814C23.9216 34.0724 23.9216 35.2565 23.9216 36.4475C23.9715 37.3823 23.9653 38.3032 23.9653 39.2242Z" fill="white"/>
<path d="M27.7195 15.6307C27.6167 15.6195 27.5175 15.5885 27.4282 15.5396C27.3389 15.4908 27.2614 15.4251 27.2008 15.3468C27.1377 15.2763 27.1004 15.189 27.0942 15.0973C27.088 15.0057 27.1132 14.9146 27.1662 14.8372C27.4347 14.4834 27.7794 14.1859 28.1784 13.9637C28.5774 13.7415 29.0218 13.5996 29.4831 13.5471C29.6383 13.5417 29.791 13.5853 29.9164 13.6707C30.0419 13.7561 30.1329 13.8785 30.1747 14.018C30.2282 14.2261 30.2337 14.4424 30.1908 14.6526C30.1478 14.8627 30.0575 15.062 29.9257 15.2372C29.7349 15.4022 29.4926 15.5061 29.2341 15.5339C28.9782 15.5855 28.0031 15.5855 27.7195 15.6307Z" fill="white"/>
<path d="M46.909 5.77467C46.6766 5.57743 46.4653 5.35977 46.2047 5.15572C44.8414 4.07298 43.3293 3.17798 41.7115 2.49627C41.0917 2.27861 40.8452 2.1698 40.2466 1.99976C38.8593 1.57303 37.4486 1.22105 36.0209 0.945488C33.3613 0.407455 30.6587 0.0911587 27.9429 6.71451e-05C26.6162 -0.00240563 25.2903 0.0634223 23.9708 0.1973C21.858 0.476169 19.7452 0.748249 17.5901 1.06113C16.3858 1.23797 15.1885 1.48963 13.9912 1.74129C12.5827 1.99976 11.1319 2.21741 9.72334 2.53029C6.87122 3.13838 4.14525 4.20523 1.65941 5.68625C1.45946 5.76303 1.2702 5.86357 1.09598 5.98552C0.69421 6.2821 0.384753 6.6798 0.201553 7.13501C0.145346 7.25085 0.100543 7.37155 0.0677389 7.4955L0.0184453 7.68594V7.86958C-0.00614843 8.11386 -0.00614843 8.35989 0.0184453 8.60417C0.053564 8.83533 0.110127 9.06297 0.187464 9.28434L0.321278 9.60402L0.483258 9.89648C0.707365 10.2458 0.990677 10.5562 1.32135 10.8147C2.09172 11.385 2.99689 11.7614 3.95533 11.9098L4.04689 11.8009C3.80744 11.5833 3.11021 11.1208 2.8778 10.8555C2.64539 10.5903 2.58904 10.6039 2.57495 10.325C2.6161 9.91108 2.81728 9.52734 3.13837 9.25032L4.48354 8.57015C5.80758 7.88998 7.12456 7.25064 8.46268 6.62488C11.7759 4.99487 15.4002 4.03879 19.1113 3.81579C20.1447 3.73084 21.1837 3.73084 22.2172 3.81579C23.3229 3.95182 24.4356 4.08787 25.5413 4.25111C27.4147 4.52998 29.2881 4.81563 31.1755 5.12851C32.7672 5.39377 34.3659 5.65904 35.9435 5.99912C38.0465 6.44834 40.0421 7.27927 41.8242 8.44772C42.0425 8.58376 42.0918 8.713 41.9439 8.95106C41.8074 9.15419 41.6243 9.3241 41.4086 9.44757C40.8029 9.80126 40.1902 10.1277 39.5634 10.4474C37.9216 11.3372 36.2206 12.1211 34.4715 12.794C34.0143 12.9817 33.5758 13.2094 33.1616 13.4742C33.0489 13.5354 32.9503 13.617 32.8376 13.6918C32.97 13.8962 33.1797 14.0426 33.4222 14.0999C33.7613 14.2238 34.1068 14.3305 34.4574 14.4196C34.7407 14.4763 35.0279 14.5127 35.3167 14.5284C35.7322 14.5284 36.1477 14.5284 36.5562 14.5692C39.5564 14.6712 39.3733 14.3448 42.0707 14.0795C42.2467 14.0795 44.937 12.9232 45.1131 12.896C45.6266 12.8279 46.1182 12.6512 46.5528 12.3784C46.9875 12.1056 47.3544 11.7435 47.6274 11.318C47.7894 11.0528 47.7401 11.0392 47.7612 10.7263C47.7612 10.2366 47.7964 10.6515 47.8316 10.1618C47.902 9.05989 47.902 9.10068 47.9302 7.99881C47.9504 7.57697 47.8686 7.15641 47.6914 6.77037C47.5141 6.38433 47.2463 6.04343 46.909 5.77467Z" fill="white"/>
</svg>
