<svg width="31" height="29" viewBox="0 0 31 29" fill="none" xmlns="http://www.w3.org/2000/svg">
<rect x="1" y="10.0801" width="21.1111" height="17.92" rx="2" stroke="black" stroke-width="1.3"/>
<path d="M16.4272 10.5104C16.4272 7.79824 14.246 5.59961 11.5554 5.59961C8.86477 5.59961 6.68359 7.79824 6.68359 10.5104" stroke="black" stroke-width="1.3"/>
<path d="M30.5009 11.1994C30.5009 15.2569 27.2387 18.5394 23.2231 18.5394C19.2074 18.5394 15.9453 15.2569 15.9453 11.1994C15.9453 7.14184 19.2074 3.85938 23.2231 3.85938C27.2387 3.85938 30.5009 7.14184 30.5009 11.1994Z" fill="white" stroke="#21B049"/>
<path d="M22.7012 6.421C23.0012 6.421 23.2712 6.4645 23.5112 6.5515C23.7542 6.6355 23.9612 6.754 24.1322 6.907C24.3032 7.057 24.4337 7.234 24.5237 7.438C24.6167 7.642 24.6632 7.8625 24.6632 8.0995C24.6632 8.3065 24.6392 8.4895 24.5912 8.6485C24.5462 8.8045 24.4787 8.941 24.3887 9.058C24.3017 9.175 24.1937 9.274 24.0647 9.355C23.9387 9.436 23.7947 9.5035 23.6327 9.5575C24.0227 9.6805 24.3137 9.868 24.5057 10.12C24.6977 10.372 24.7937 10.6885 24.7937 11.0695C24.7937 11.3935 24.7337 11.68 24.6137 11.929C24.4937 12.178 24.3317 12.388 24.1277 12.559C23.9237 12.727 23.6867 12.8545 23.4167 12.9415C23.1497 13.0285 22.8662 13.072 22.5662 13.072C22.2392 13.072 21.9542 13.0345 21.7112 12.9595C21.4682 12.8845 21.2567 12.7735 21.0767 12.6265C20.8967 12.4795 20.7437 12.2995 20.6177 12.0865C20.4917 11.8735 20.3837 11.6275 20.2937 11.3485L20.7842 11.146C20.8682 11.11 20.9537 11.092 21.0407 11.092C21.1187 11.092 21.1877 11.1085 21.2477 11.1415C21.3107 11.1745 21.3587 11.2225 21.3917 11.2855C21.4457 11.3905 21.5042 11.494 21.5672 11.596C21.6332 11.698 21.7112 11.7895 21.8012 11.8705C21.8912 11.9485 21.9962 12.013 22.1162 12.064C22.2392 12.112 22.3847 12.136 22.5527 12.136C22.7417 12.136 22.9067 12.106 23.0477 12.046C23.1887 11.983 23.3057 11.902 23.3987 11.803C23.4947 11.704 23.5652 11.5945 23.6102 11.4745C23.6582 11.3515 23.6822 11.2285 23.6822 11.1055C23.6822 10.9495 23.6657 10.8085 23.6327 10.6825C23.5997 10.5535 23.5307 10.444 23.4257 10.354C23.3207 10.264 23.1692 10.1935 22.9712 10.1425C22.7762 10.0915 22.5137 10.066 22.1837 10.066V9.274C22.4567 9.271 22.6832 9.2455 22.8632 9.1975C23.0432 9.1495 23.1857 9.0835 23.2907 8.9995C23.3987 8.9125 23.4737 8.809 23.5157 8.689C23.5577 8.569 23.5787 8.437 23.5787 8.293C23.5787 7.984 23.4947 7.7515 23.3267 7.5955C23.1587 7.4365 22.9292 7.357 22.6382 7.357C22.3742 7.357 22.1552 7.4275 21.9812 7.5685C21.8072 7.7065 21.6857 7.885 21.6167 8.104C21.5807 8.218 21.5312 8.3005 21.4682 8.3515C21.4052 8.3995 21.3227 8.4235 21.2207 8.4235C21.1727 8.4235 21.1217 8.419 21.0677 8.41L20.4827 8.3065C20.5277 7.9945 20.6147 7.7215 20.7437 7.4875C20.8727 7.2505 21.0332 7.054 21.2252 6.898C21.4202 6.739 21.6422 6.6205 21.8912 6.5425C22.1432 6.4615 22.4132 6.421 22.7012 6.421Z" fill="#21B049"/>
</svg>
