<svg width="124" height="44" viewBox="0 0 124 44" fill="none" xmlns="http://www.w3.org/2000/svg">
<path d="M64.2527 18.2133V5.72969H68.7482V4.17188H58.0184V5.72969H62.4927V18.2133H64.2527Z" fill="black"/>
<path d="M77.0094 18.2133V11.2242C77.0094 8.76112 75.2282 7.79275 73.044 7.79275C71.3688 7.79275 70.0541 8.34009 68.9515 9.47687L69.6936 10.5716C70.6055 9.58213 71.6021 9.1611 72.832 9.1611C74.3163 9.1611 75.419 9.94001 75.419 11.2873V13.1188C74.592 12.1925 73.4257 11.7504 72.0262 11.7504C70.2874 11.7504 68.4637 12.803 68.4637 15.0976C68.4637 17.3081 70.3086 18.4659 72.0262 18.4659C73.4045 18.4659 74.592 17.9817 75.419 17.0554V18.2133H77.0094ZM72.6199 17.3291C71.1144 17.3291 70.0753 16.4028 70.0753 15.0976C70.0753 13.8135 71.1144 12.8872 72.6199 12.8872C73.7226 12.8872 74.8041 13.3083 75.419 14.1293V16.066C74.8041 16.9081 73.7226 17.3291 72.6199 17.3291Z" fill="black"/>
<path d="M83.4837 18.4659C86.1132 18.4659 87.4915 17.0975 87.4915 15.3924C87.4915 11.4347 81.1512 12.8872 81.1512 10.6768C81.1512 9.77159 82.0206 9.07689 83.4201 9.07689C84.756 9.07689 85.8587 9.62423 86.4737 10.361L87.2158 9.26636C86.41 8.44535 85.1801 7.79275 83.4201 7.79275C80.9815 7.79275 79.6244 9.11899 79.6244 10.7189C79.6244 14.4871 85.9647 12.9714 85.9647 15.4345C85.9647 16.4449 85.0953 17.1817 83.5261 17.1817C82.1266 17.1817 80.8331 16.5081 80.1545 15.7292L79.3487 16.866C80.3878 17.9396 81.7873 18.4659 83.4837 18.4659Z" fill="black"/>
<path d="M90.881 6.59281C91.4747 6.59281 91.9413 6.12967 91.9413 5.54023C91.9413 4.95078 91.4747 4.4666 90.881 4.4666C90.2873 4.4666 89.7995 4.95078 89.7995 5.54023C89.7995 6.12967 90.2873 6.59281 90.881 6.59281ZM88.6333 22.3394C90.6053 22.3394 91.6656 21.2026 91.6656 19.2027V8.04537H90.0752V19.2027C90.0752 20.4868 89.3754 21.0342 88.4212 21.0342C87.7851 21.0342 87.3185 20.7605 86.9581 20.4026L86.4067 21.5815C87.0429 22.0868 87.5942 22.3394 88.6333 22.3394Z" fill="black"/>
<path d="M102.832 18.2133V11.2242C102.832 8.76112 101.051 7.79275 98.867 7.79275C97.1918 7.79275 95.8771 8.34009 94.7745 9.47687L95.5166 10.5716C96.4285 9.58213 97.4251 9.1611 98.655 9.1611C100.139 9.1611 101.242 9.94001 101.242 11.2873V13.1188C100.415 12.1925 99.2487 11.7504 97.8492 11.7504C96.1104 11.7504 94.2867 12.803 94.2867 15.0976C94.2867 17.3081 96.1316 18.4659 97.8492 18.4659C99.2275 18.4659 100.415 17.9817 101.242 17.0554V18.2133H102.832ZM98.4429 17.3291C96.9374 17.3291 95.8983 16.4028 95.8983 15.0976C95.8983 13.8135 96.9374 12.8872 98.4429 12.8872C99.5456 12.8872 100.627 13.3083 101.242 14.1293V16.066C100.627 16.9081 99.5456 17.3291 98.4429 17.3291Z" fill="black"/>
<path d="M113.352 18.2133V12.6346H117.275C120.096 12.6346 121.707 10.6979 121.707 8.40324C121.707 6.10862 120.117 4.17188 117.275 4.17188H111.592V18.2133H113.352ZM117.063 11.0768H113.352V5.72969H117.063C118.739 5.72969 119.884 6.82437 119.884 8.40324C119.884 9.98211 118.739 11.0768 117.063 11.0768Z" fill="black"/>
<path d="M122.835 18.4238C123.471 18.4238 124.001 17.8975 124.001 17.266C124.001 16.6344 123.471 16.1081 122.835 16.1081C122.198 16.1081 121.668 16.6344 121.668 17.266C121.668 17.8975 122.198 18.4238 122.835 18.4238Z" fill="black"/>
<path d="M43.7441 42.7268C46.2463 42.7268 47.9427 41.548 49.1301 39.927L47.6458 39.127C46.84 40.3059 45.3556 41.169 43.7441 41.169C40.6481 41.169 38.2943 38.7902 38.2943 35.4641C38.2943 32.0958 40.6481 29.7591 43.7441 29.7591C45.3556 29.7591 46.84 30.6011 47.6458 31.8011L49.1089 30.9801C47.9851 29.3801 46.2463 28.2013 43.7441 28.2013C39.6727 28.2013 36.4707 31.1485 36.4707 35.4641C36.4707 39.7796 39.6727 42.7268 43.7441 42.7268Z" fill="black"/>
<path d="M55.9536 42.7268C57.6076 42.7268 58.9859 42.1584 60.0249 41.148L59.2616 40.1164C58.4346 40.9585 57.2683 41.4216 56.0808 41.4216C53.8755 41.4216 52.5395 39.8217 52.4123 37.906H60.6823V37.5061C60.6823 34.4536 58.8587 32.0537 55.7627 32.0537C52.8364 32.0537 50.7159 34.4325 50.7159 37.3797C50.7159 40.5585 52.9 42.7268 55.9536 42.7268ZM59.1131 36.7271H52.3911C52.4759 35.1904 53.5574 33.3589 55.7415 33.3589C58.0741 33.3589 59.0919 35.2325 59.1131 36.7271Z" fill="black"/>
<path d="M64.8486 42.4742V35.2746C65.3151 34.4536 66.651 33.6536 67.6477 33.6536C67.8809 33.6536 68.0718 33.6747 68.2626 33.6957V32.0747C66.8631 32.0747 65.6756 32.8747 64.8486 33.9273V32.3063H63.2582V42.4742H64.8486Z" fill="black"/>
<path d="M78.2519 42.4742V35.4851C78.2519 33.0221 76.4707 32.0537 74.2865 32.0537C72.6113 32.0537 71.2966 32.601 70.1939 33.7378L70.9361 34.8325C71.8479 33.8431 72.8446 33.422 74.0745 33.422C75.5588 33.422 76.6615 34.201 76.6615 35.5483V37.3797C75.8345 36.4535 74.6682 36.0114 73.2687 36.0114C71.5299 36.0114 69.7062 37.064 69.7062 39.3586C69.7062 41.569 71.5511 42.7268 73.2687 42.7268C74.647 42.7268 75.8345 42.2427 76.6615 41.3164V42.4742H78.2519ZM73.8624 41.5901C72.3569 41.5901 71.3178 40.6638 71.3178 39.3586C71.3178 38.0744 72.3569 37.1482 73.8624 37.1482C74.9651 37.1482 76.0465 37.5692 76.6615 38.3902V40.327C76.0465 41.169 74.9651 41.5901 73.8624 41.5901Z" fill="black"/>
<path d="M95.4136 42.4742V35.1272C95.4136 33.0852 94.417 32.0537 92.5509 32.0537C91.0665 32.0537 89.6882 33.0221 89.1157 33.9483C88.8188 32.8958 87.9282 32.0537 86.3802 32.0537C84.8535 32.0537 83.4963 33.1273 83.051 33.7799V32.3063H81.4606V42.4742H83.051V35.043C83.6024 34.222 84.705 33.4641 85.7441 33.4641C87.1012 33.4641 87.6313 34.2852 87.6313 35.5693V42.4742H89.2217V35.022C89.7518 34.201 90.8757 33.4641 91.936 33.4641C93.2719 33.4641 93.8232 34.2852 93.8232 35.5693V42.4742H95.4136Z" fill="black"/>
<path d="M99.392 30.8538C99.9858 30.8538 100.452 30.3906 100.452 29.8012C100.452 29.2117 99.9858 28.7275 99.392 28.7275C98.7983 28.7275 98.3106 29.2117 98.3106 29.8012C98.3106 30.3906 98.7983 30.8538 99.392 30.8538ZM100.177 42.4742V32.3063H98.5862V42.4742H100.177Z" fill="black"/>
<path d="M107.866 42.7268C109.732 42.7268 110.835 41.969 111.619 40.9585L110.559 39.9901C109.88 40.8954 109.011 41.3164 107.951 41.3164C105.788 41.3164 104.409 39.6323 104.409 37.3797C104.409 35.1272 105.788 33.4641 107.951 33.4641C109.011 33.4641 109.88 33.8431 110.559 34.7693L111.619 33.822C110.835 32.8115 109.732 32.0537 107.866 32.0537C104.812 32.0537 102.755 34.3694 102.755 37.3797C102.755 40.3901 104.812 42.7268 107.866 42.7268Z" fill="black"/>
<path d="M117.134 42.7268C119.764 42.7268 121.142 41.3585 121.142 39.6533C121.142 35.6956 114.802 37.1482 114.802 34.9378C114.802 34.0325 115.671 33.3378 117.071 33.3378C118.407 33.3378 119.509 33.8852 120.124 34.622L120.867 33.5273C120.061 32.7063 118.831 32.0537 117.071 32.0537C114.632 32.0537 113.275 33.3799 113.275 34.9799C113.275 38.7481 119.615 37.2324 119.615 39.6954C119.615 40.7059 118.746 41.4427 117.177 41.4427C115.777 41.4427 114.484 40.769 113.805 39.9901L112.999 41.1269C114.038 42.2006 115.438 42.7268 117.134 42.7268Z" fill="black"/>
<path d="M23.9657 39.2217C23.8971 40.078 23.7614 40.926 23.5604 41.7561C23.205 43.141 23.0554 43.8334 21.9205 43.7573C21.0413 43.7088 20.8481 43.2241 20.3555 42.3724C19.5335 40.8727 19.0322 39.1837 18.8902 37.4352C18.7768 36.1514 18.7351 34.8609 18.7654 33.5714C18.7654 31.9026 18.8153 30.2268 18.8403 28.558C18.8403 28.3295 18.8964 28.101 18.9026 27.8656C18.9026 26.9654 18.9587 26.0722 18.9899 25.172L19.1396 20.3733C19.1396 19.4316 19.1396 18.4829 19.2269 17.5481C19.3204 16.2325 19.2705 14.903 19.389 13.5873C19.4763 12.6525 19.3329 11.6969 19.389 10.7552C19.4375 9.68334 19.6072 8.6225 19.894 7.59765C19.9872 7.28598 20.1105 6.98647 20.2619 6.70438C20.3616 6.54206 20.4913 6.40517 20.6423 6.30277C20.6718 6.2786 20.7058 6.26214 20.7418 6.25464C20.7779 6.24713 20.815 6.24876 20.8504 6.25941C20.8857 6.27007 20.9185 6.28946 20.9462 6.31615C20.9738 6.34284 20.9957 6.37616 21.0102 6.41357C21.1283 6.61142 21.2227 6.82557 21.2908 7.05061C21.5056 7.88032 21.6825 8.72158 21.8208 9.57113C22.5004 14.4875 22.7124 19.3069 23.2986 24.251C23.6407 27.1131 23.8488 29.9929 23.9221 32.8789C23.9221 34.0699 23.9221 35.254 23.9221 36.445C23.972 37.3798 23.9657 38.3008 23.9657 39.2217Z" fill="black"/>
<path d="M27.719 15.6309C27.6162 15.6197 27.517 15.5887 27.4277 15.5399C27.3384 15.491 27.261 15.4253 27.2003 15.3471C27.1373 15.2766 27.0999 15.1892 27.0937 15.0976C27.0875 15.0059 27.1127 14.9148 27.1657 14.8375C27.4342 14.4837 27.779 14.1862 28.1779 13.964C28.5769 13.7418 29.0213 13.5999 29.4826 13.5473C29.6378 13.542 29.7905 13.5855 29.9159 13.6709C30.0414 13.7564 30.1324 13.8787 30.1742 14.0182C30.2277 14.2263 30.2332 14.4426 30.1903 14.6528C30.1473 14.863 30.057 15.0623 29.9252 15.2374C29.7344 15.4024 29.4921 15.5063 29.2336 15.5342C28.9777 15.5858 28.0026 15.5858 27.719 15.6309Z" fill="black"/>
<path d="M46.909 5.77467C46.6766 5.57743 46.4653 5.35977 46.2047 5.15572C44.8414 4.07298 43.3293 3.17798 41.7115 2.49627C41.0917 2.27861 40.8452 2.1698 40.2466 1.99976C38.8593 1.57303 37.4486 1.22105 36.0209 0.945488C33.3613 0.407455 30.6587 0.0911587 27.9429 6.71451e-05C26.6162 -0.00240563 25.2903 0.0634223 23.9708 0.1973C21.858 0.476169 19.7452 0.748249 17.5901 1.06113C16.3858 1.23797 15.1885 1.48963 13.9912 1.74129C12.5827 1.99976 11.1319 2.21741 9.72334 2.53029C6.87122 3.13838 4.14525 4.20523 1.65941 5.68625C1.45946 5.76303 1.2702 5.86357 1.09598 5.98552C0.69421 6.2821 0.384753 6.6798 0.201553 7.13501C0.145346 7.25085 0.100543 7.37155 0.0677389 7.4955L0.0184453 7.68594V7.86958C-0.00614843 8.11386 -0.00614843 8.35989 0.0184453 8.60417C0.053564 8.83533 0.110127 9.06297 0.187464 9.28434L0.321278 9.60402L0.483258 9.89648C0.707365 10.2458 0.990677 10.5562 1.32135 10.8147C2.09172 11.385 2.99689 11.7614 3.95533 11.9098L4.04689 11.8009C3.80744 11.5833 3.11021 11.1208 2.8778 10.8555C2.64539 10.5903 2.58904 10.6039 2.57495 10.325C2.6161 9.91108 2.81728 9.52734 3.13837 9.25032L4.48354 8.57015C5.80758 7.88998 7.12456 7.25064 8.46268 6.62488C11.7759 4.99487 15.4002 4.03879 19.1113 3.81579C20.1447 3.73084 21.1837 3.73084 22.2172 3.81579C23.3229 3.95182 24.4356 4.08787 25.5413 4.25111C27.4147 4.52998 29.2881 4.81563 31.1755 5.12851C32.7672 5.39377 34.3659 5.65904 35.9435 5.99912C38.0465 6.44834 40.0421 7.27927 41.8242 8.44772C42.0425 8.58376 42.0918 8.713 41.9439 8.95106C41.8074 9.15419 41.6243 9.3241 41.4086 9.44757C40.8029 9.80126 40.1902 10.1277 39.5634 10.4474C37.9216 11.3372 36.2206 12.1211 34.4715 12.794C34.0143 12.9817 33.5758 13.2094 33.1616 13.4742C33.0489 13.5354 32.9503 13.617 32.8376 13.6918C32.97 13.8962 33.1797 14.0426 33.4222 14.0999C33.7613 14.2238 34.1068 14.3305 34.4574 14.4196C34.7407 14.4763 35.0279 14.5127 35.3167 14.5284C35.7322 14.5284 36.1477 14.5284 36.5562 14.5692C39.5564 14.6712 39.3733 14.3448 42.0707 14.0795C42.2467 14.0795 44.937 12.9232 45.1131 12.896C45.6266 12.8279 46.1182 12.6512 46.5528 12.3784C46.9875 12.1056 47.3544 11.7435 47.6274 11.318C47.7894 11.0528 47.7401 11.0392 47.7612 10.7263C47.7612 10.2366 47.7964 10.6515 47.8316 10.1618C47.902 9.05989 47.902 9.10068 47.9302 7.99881C47.9504 7.57697 47.8686 7.15641 47.6914 6.77037C47.5141 6.38433 47.2463 6.04343 46.909 5.77467Z" fill="black"/>
</svg>
