<svg width="32" height="32" viewBox="0 0 32 32" fill="none" xmlns="http://www.w3.org/2000/svg">
<circle cx="16" cy="16" r="16" fill="white"/>
<path d="M11.4283 17.633C11.9995 17.6313 12.5491 17.4145 12.9676 17.0257L17.0557 19.3617C16.7726 20.4681 17.3447 21.6147 18.399 22.0537C19.4534 22.4928 20.6702 22.0912 21.256 21.1107C21.8419 20.1303 21.6191 18.8685 20.7329 18.148C19.8468 17.4275 18.566 17.4668 17.7258 18.2404L13.6376 15.9044C13.6805 15.7405 13.7041 15.5722 13.7081 15.4028L17.7251 13.1073C18.5224 13.8322 19.7185 13.8994 20.592 13.2684C21.4655 12.6374 21.7776 11.4808 21.34 10.4961C20.9025 9.51137 19.8349 8.96781 18.7812 9.19322C17.7275 9.41863 16.9757 10.3514 16.9793 11.4289C16.9816 11.6171 17.0073 11.8042 17.0557 11.986L13.3437 14.1065C12.7491 13.1866 11.5855 12.8178 10.5696 13.2273C9.55368 13.6368 8.97108 14.7095 9.18063 15.7846C9.39018 16.8597 10.333 17.635 11.4283 17.633Z" fill="#2E3A59"/>
</svg>
