<svg width="28" height="28" viewBox="0 0 28 28" fill="none" xmlns="http://www.w3.org/2000/svg">
<path d="M2.33545 14.0022C2.33681 19.7415 6.51025 24.6283 12.1786 25.5277V17.3739H9.21878V14.0022H12.1821V11.4356C12.0496 10.2194 12.4651 9.00725 13.3157 8.12798C14.1663 7.24871 15.364 6.7934 16.584 6.88556C17.4596 6.8997 18.333 6.97768 19.1973 7.11889V9.98772H17.7226C17.2149 9.92123 16.7045 10.0889 16.3352 10.4435C15.9658 10.7981 15.7775 11.3013 15.8233 11.8112V14.0022H19.0561L18.5393 17.3751H15.8233V25.5277C21.9535 24.5589 26.2522 18.9603 25.6052 12.7878C24.9582 6.61532 19.592 2.02981 13.3941 2.35326C7.1962 2.67672 2.33643 7.79592 2.33545 14.0022Z" fill="white"/>
</svg>
