<svg width="28" height="28" viewBox="0 0 28 28" fill="none" xmlns="http://www.w3.org/2000/svg">
<path d="M2.33594 14.0025C2.33729 19.7418 6.51074 24.6285 12.1791 25.528V17.3741H9.21927V14.0025H12.1826V11.4358C12.0501 10.2196 12.4655 9.00749 13.3162 8.12822C14.1668 7.24895 15.3645 6.79365 16.5844 6.8858C17.4601 6.89994 18.3335 6.97793 19.1978 7.11913V9.98797H17.7231C17.2154 9.92147 16.705 10.0891 16.3357 10.4437C15.9663 10.7983 15.778 11.3015 15.8238 11.8115V14.0025H19.0566L18.5398 17.3753H15.8238V25.528C21.954 24.5592 26.2527 18.9605 25.6057 12.7881C24.9587 6.61556 19.5924 2.03005 13.3946 2.35351C7.19669 2.67697 2.33692 7.79616 2.33594 14.0025Z" fill="black"/>
</svg>
