<svg width="28" height="28" viewBox="0 0 28 28" fill="none" xmlns="http://www.w3.org/2000/svg">
<path d="M14.0024 24.5479C11.1324 24.5479 10.7941 24.5327 9.67411 24.4837C8.80071 24.455 7.93861 24.2774 7.12494 23.9587C5.71714 23.4108 4.60394 22.2972 4.05661 20.8892C3.75013 20.0726 3.58483 19.2098 3.56777 18.3377C3.50244 17.22 3.50244 16.8537 3.50244 14.0059C3.50244 11.1277 3.51761 10.7917 3.56777 9.67753C3.5852 8.80663 3.7505 7.94504 4.05661 7.12953C4.60334 5.71964 5.71835 4.60506 7.12844 4.05886C7.94353 3.7511 8.80534 3.58536 9.67644 3.56886C10.7906 3.50586 11.1569 3.50586 14.0024 3.50586C16.8958 3.50586 17.2283 3.52103 18.3308 3.56886C19.2041 3.5855 20.0682 3.75122 20.8858 4.05886C22.2955 4.60568 23.4103 5.72005 23.9576 7.12953C24.2693 7.95692 24.4354 8.83199 24.4488 9.71603C24.5141 10.8337 24.5141 11.1989 24.5141 14.0455C24.5141 16.8922 24.4978 17.2655 24.4488 18.3704C24.4314 19.2433 24.2657 20.1069 23.9588 20.9242C23.41 22.3332 22.2952 23.4472 20.8858 23.9949C20.0694 24.3007 19.2071 24.466 18.3354 24.4837C17.2213 24.5479 16.8561 24.5479 14.0024 24.5479ZM13.9628 5.35269C11.1091 5.35269 10.8128 5.36669 9.69861 5.41686C9.03359 5.42567 8.375 5.54839 7.75144 5.77969C6.83065 6.13204 6.10204 6.85768 5.74594 7.77703C5.51286 8.40737 5.39012 9.07317 5.38311 9.74519C5.32127 10.8757 5.32127 11.172 5.32127 14.0059C5.32127 16.8059 5.33177 17.1454 5.38311 18.2689C5.39355 18.9341 5.51622 19.5928 5.74594 20.2172C6.10256 21.1359 6.83105 21.861 7.75144 22.2134C8.37458 22.4462 9.03343 22.569 9.69861 22.5762C10.8279 22.6415 11.1254 22.6415 13.9628 22.6415C16.8246 22.6415 17.1209 22.6275 18.2258 22.5762C18.8912 22.5681 19.5503 22.4454 20.1741 22.2134C21.0893 21.858 21.8132 21.1345 22.1691 20.2195C22.4017 19.5887 22.5245 18.9226 22.5319 18.2502H22.5448C22.5949 17.1349 22.5949 16.8374 22.5949 13.9872C22.5949 11.137 22.5821 10.8372 22.5319 9.72303C22.5215 9.05855 22.3988 8.40062 22.1691 7.77703C21.814 6.86069 21.09 6.13587 20.1741 5.77969C19.5505 5.54722 18.8913 5.42447 18.2258 5.41686C17.0976 5.35269 16.8024 5.35269 13.9628 5.35269ZM14.0024 19.3947C11.8208 19.3961 9.8531 18.083 9.01711 16.0679C8.18113 14.0527 8.6415 11.7324 10.1835 10.1891C11.7255 8.64572 14.0454 8.18334 16.0613 9.01758C18.0772 9.85182 19.392 11.8183 19.3924 14C19.3892 16.9763 16.9787 19.3889 14.0024 19.3947ZM14.0024 10.4977C12.0694 10.4977 10.5024 12.0647 10.5024 13.9977C10.5024 15.9307 12.0694 17.4977 14.0024 17.4977C15.9354 17.4977 17.5024 15.9307 17.5024 13.9977C17.498 12.0666 15.9336 10.5022 14.0024 10.4977ZM19.6024 9.66586C18.9088 9.66328 18.3482 9.09955 18.3494 8.40587C18.3507 7.71219 18.9134 7.15053 19.6071 7.15053C20.3008 7.15053 20.8635 7.71218 20.8648 8.40586C20.8651 8.74053 20.7321 9.06155 20.4952 9.29798C20.2584 9.53441 19.9371 9.66679 19.6024 9.66586Z" fill="white"/>
</svg>
