<svg width="28" height="28" viewBox="0 0 28 28" fill="none" xmlns="http://www.w3.org/2000/svg">
<path d="M14.0039 24.5498C11.1339 24.5498 10.7956 24.5346 9.67557 24.4856C8.80217 24.4569 7.94008 24.2794 7.12641 23.9606C5.7186 23.4128 4.6054 22.2992 4.05807 20.8911C3.7516 20.0745 3.58629 19.2117 3.56924 18.3396C3.50391 17.222 3.50391 16.8556 3.50391 14.0078C3.50391 11.1296 3.51907 10.7936 3.56924 9.67948C3.58667 8.80859 3.75196 7.94699 4.05807 7.13148C4.60481 5.7216 5.71982 4.60701 7.12991 4.06081C7.94499 3.75305 8.80681 3.58731 9.67791 3.57081C10.7921 3.50781 11.1584 3.50781 14.0039 3.50781C16.8972 3.50781 17.2297 3.52298 18.3322 3.57081C19.2056 3.58746 20.0697 3.75317 20.8872 4.06081C22.2969 4.60763 23.4117 5.722 23.9591 7.13148C24.2707 7.95887 24.4369 8.83394 24.4502 9.71798C24.5156 10.8356 24.5156 11.2008 24.5156 14.0475C24.5156 16.8941 24.4992 17.2675 24.4502 18.3723C24.4329 19.2452 24.2672 20.1088 23.9602 20.9261C23.4115 22.3351 22.2966 23.4492 20.8872 23.9968C20.0709 24.3027 19.2085 24.468 18.3369 24.4856C17.2227 24.5498 16.8576 24.5498 14.0039 24.5498ZM13.9642 5.35465C11.1106 5.35465 10.8142 5.36865 9.70007 5.41881C9.03506 5.42762 8.37647 5.55034 7.75291 5.78165C6.83212 6.13399 6.1035 6.85964 5.74741 7.77898C5.51432 8.40933 5.39158 9.07512 5.38457 9.74715C5.32274 10.8776 5.32274 11.174 5.32274 14.0078C5.32274 16.8078 5.33324 17.1473 5.38457 18.2708C5.39502 18.936 5.51768 19.5947 5.74741 20.2191C6.10403 21.1379 6.83252 21.863 7.75291 22.2153C8.37604 22.4482 9.0349 22.5709 9.70007 22.5781C10.8294 22.6435 11.1269 22.6435 13.9642 22.6435C16.8261 22.6435 17.1224 22.6295 18.2272 22.5781C18.8927 22.57 19.5518 22.4473 20.1756 22.2153C21.0908 21.8599 21.8147 21.1365 22.1706 20.2215C22.4032 19.5906 22.5259 18.9245 22.5334 18.2521H22.5462C22.5964 17.1368 22.5964 16.8393 22.5964 13.9891C22.5964 11.139 22.5836 10.8391 22.5334 9.72498C22.5229 9.06051 22.4003 8.40258 22.1706 7.77898C21.8155 6.86265 21.0915 6.13782 20.1756 5.78165C19.5519 5.54918 18.8928 5.42642 18.2272 5.41881C17.0991 5.35465 16.8039 5.35465 13.9642 5.35465ZM14.0039 19.3966C11.8222 19.3981 9.85456 18.085 9.01858 16.0698C8.1826 14.0547 8.64296 11.7344 10.185 10.191C11.727 8.64767 14.0469 8.1853 16.0628 9.01953C18.0787 9.85377 19.3934 11.8203 19.3939 14.002C19.3907 16.9782 16.9801 19.3909 14.0039 19.3966ZM14.0039 10.4996C12.0709 10.4996 10.5039 12.0666 10.5039 13.9996C10.5039 15.9326 12.0709 17.4996 14.0039 17.4996C15.9369 17.4996 17.5039 15.9326 17.5039 13.9996C17.4994 12.0685 15.935 10.5041 14.0039 10.4996ZM19.6039 9.66782C18.9102 9.66524 18.3496 9.1015 18.3509 8.40782C18.3522 7.71415 18.9149 7.15249 19.6086 7.15249C20.3022 7.15249 20.8649 7.71414 20.8662 8.40781C20.8666 8.74249 20.7336 9.06351 20.4967 9.29994C20.2598 9.53637 19.9386 9.66874 19.6039 9.66782Z" fill="black"/>
</svg>
