<?xml version="1.0" encoding="UTF-8"?> <svg xmlns="http://www.w3.org/2000/svg" id="Lag_1" data-name="Lag 1" viewBox="0 0 71.8314 22"><defs><style>.cls-1{fill:#1d1d1b;}</style></defs><path class="cls-1" d="M3.15,1.3442H.8091V.8779H3.15A3.153,3.153,0,0,0,5.6392.1494V16.3828L10.38,11.8945a3.2967,3.2967,0,0,0,1.0371-1.3408c0-.32-.4151-.4663-1.3335-.4663H9.0767V9.6211h6.2524v.4663H14.292a3.109,3.109,0,0,0-2.4893,1.166l-3.289,3.06,4.6523,5.6826c.6519.7871.8887,1.1074,1.4517,1.1074h1.5112V21.57H8.6914v-.4668h2.1333l-4.1484-5.041-1.0371.9609v4.08H7.7134V21.57H.8091v-.4668H3.15Z"></path><path class="cls-1" d="M19.7744,10.0874H17.2852V9.6211h2.4892A3.4817,3.4817,0,0,0,22.2632,8.98v3.4389h.06c.3554-1.3115,1.3925-3.4389,3.8227-3.4389a1.7947,1.7947,0,0,1,1.9556,1.72,1.2865,1.2865,0,0,1-1.3633,1.37c-.9775,0-1.3037-.4956-1.3037-1.2822a1.3915,1.3915,0,0,1,.6518-1.2534.671.671,0,0,0-.415-.0874c-1.2148,0-3.4077,1.8945-3.4077,5.6836v5.9736H24.96V21.57H17.2852v-.4668h2.4892Z"></path><path class="cls-1" d="M40.2207,17.0527c0,2.04.2959,4.4014,3.4668,4.4014a4.7717,4.7717,0,0,0,4.7119-3.9932h.5039a5.1634,5.1634,0,0,1-5.2158,4.459c-3.3486,0-4.86-.67-5.7783-2.04a4.9916,4.9916,0,0,1-4.5337,2.04c-2.3115,0-3.7041-1.1367-3.7041-3.1181,0-3.2647,4.415-4.08,7.4673-4.08h.415v-3.585c0-1.37-1.1558-1.69-2.2817-1.69-.8594,0-2.8745.3208-2.8745,1.37,0,.7.978.3789.978,1.6909a1.2734,1.2734,0,0,1-1.3633,1.2237c-.83,0-1.3037-.6416-1.3037-1.6319,0-1.4863,1.6-3.1186,4.5635-3.1186a5.5325,5.5325,0,0,1,4.2671,1.4863A4.932,4.932,0,0,1,43.125,8.98c3.7031,0,5.5107,3.8471,5.5107,5.0708a.234.234,0,0,1-.2666.2627H40.2207Zm-3.0225-1.8652c-2.1635,0-4.86.0586-4.86,3.1768,0,1.6318.2666,2.8564,2.1631,2.8564,1.8667,0,3.0522-1.1953,3.0522-1.9531v-4.08Zm8.3858-1.3408a.185.185,0,0,0,.207-.2041v-.6114c0-1.8652-.5029-3.5849-2.666-3.5849-2.2822,0-2.9043,1.72-2.9043,3.5849v.8155Z"></path><path class="cls-1" d="M51.2734,17.3447h.3848c.2373,1.4864,1.0078,4.1094,4.1191,4.1094a2.6724,2.6724,0,0,0,2.8741-2.7109c0-2.3018-1.7774-2.3311-3.3477-2.5059-1.9267-.2041-3.793-.4668-3.793-3.498A3.5607,3.5607,0,0,1,55.2148,8.98,7.3334,7.3334,0,0,1,58.207,10c.1778,0,.208-.2041.208-.6118V9.1548H58.83l.1181,3.4682h-.3857A3.227,3.227,0,0,0,55.126,9.4463c-1.5117,0-2.7266.8159-2.7266,2.3315s1.1553,2.0406,3.1113,2.1568l1.0079.0586c2.4.1455,3.3779,1.4277,3.3779,3.4384A4.1713,4.1713,0,0,1,55.7773,21.92c-2.3408,0-3.0517-1.2529-3.6445-1.2529-.3857,0-.2969.4658-.3555,1.0781H51.333Z"></path><path class="cls-1" d="M62.8008,17.3447h.3847c.2374,1.4864,1.0079,4.1094,4.1192,4.1094a2.6723,2.6723,0,0,0,2.874-2.7109c0-2.3018-1.7773-2.3311-3.3476-2.5059-1.9268-.2041-3.793-.4668-3.793-3.498A3.5607,3.5607,0,0,1,66.7422,8.98,7.3341,7.3341,0,0,1,69.7344,10c.1777,0,.208-.2041.208-.6118V9.1548h.415l.1182,3.4682H70.09a3.227,3.227,0,0,0-3.4365-3.1767c-1.5117,0-2.7265.8159-2.7265,2.3315s1.1552,2.0406,3.1113,2.1568l1.0078.0586c2.4.1455,3.3779,1.4277,3.3779,3.4384A4.1713,4.1713,0,0,1,67.3047,21.92c-2.3408,0-3.0518-1.2529-3.6445-1.2529-.3858,0-.2969.4658-.3555,1.0781H62.86Z"></path></svg> 