<svg width="40" height="40" viewBox="0 0 40 40" fill="none" xmlns="http://www.w3.org/2000/svg">
<path d="M20.0039 35.0678C15.9039 35.0678 15.4206 35.0461 13.8206 34.9761C12.5729 34.9351 11.3413 34.6815 10.1789 34.2261C8.16776 33.4435 6.57747 31.8526 5.79557 29.8411C5.35775 28.6745 5.1216 27.442 5.09724 26.1961C5.00391 24.5995 5.00391 24.0761 5.00391 20.0078C5.00391 15.8961 5.02557 15.4161 5.09724 13.8245C5.12214 12.5803 5.35827 11.3495 5.79557 10.1845C6.57663 8.17036 8.16949 6.5781 10.1839 5.79781C11.3483 5.35815 12.5795 5.12139 13.8239 5.09781C15.4156 5.00781 15.9389 5.00781 20.0039 5.00781C24.1372 5.00781 24.6122 5.02948 26.1872 5.09781C27.4349 5.12159 28.6693 5.35833 29.8372 5.79781C31.8511 6.57898 33.4436 8.17094 34.2256 10.1845C34.6708 11.3665 34.9082 12.6166 34.9272 13.8795C35.0206 15.4761 35.0206 15.9978 35.0206 20.0645C35.0206 24.1311 34.9972 24.6645 34.9272 26.2428C34.9024 27.4898 34.6657 28.7235 34.2272 29.8911C33.4433 31.904 31.8507 33.4954 29.8372 34.2778C28.671 34.7148 27.4391 34.9509 26.1939 34.9761C24.6022 35.0678 24.0806 35.0678 20.0039 35.0678ZM19.9472 7.64615C15.8706 7.64615 15.4472 7.66615 13.8556 7.73781C12.9055 7.7504 11.9647 7.92571 11.0739 8.25615C9.75849 8.75949 8.71762 9.79613 8.20891 11.1095C7.87593 12.01 7.70059 12.9611 7.69057 13.9211C7.60224 15.5361 7.60224 15.9595 7.60224 20.0078C7.60224 24.0078 7.61724 24.4928 7.69057 26.0978C7.70549 27.0481 7.88073 27.9891 8.20891 28.8811C8.71837 30.1936 9.75906 31.2295 11.0739 31.7328C11.9641 32.0654 12.9053 32.2408 13.8556 32.2511C15.4689 32.3445 15.8939 32.3445 19.9472 32.3445C24.0356 32.3445 24.4589 32.3245 26.0372 32.2511C26.9879 32.2396 27.9295 32.0642 28.8206 31.7328C30.128 31.2251 31.1621 30.1916 31.6706 28.8845C32.0029 27.9832 32.1782 27.0317 32.1889 26.0711H32.2072C32.2789 24.4778 32.2789 24.0528 32.2789 19.9811C32.2789 15.9095 32.2606 15.4811 32.1889 13.8895C32.174 12.9402 31.9987 12.0003 31.6706 11.1095C31.1633 9.80043 30.129 8.76497 28.8206 8.25615C27.9297 7.92405 26.988 7.74868 26.0372 7.73781C24.4256 7.64615 24.0039 7.64615 19.9472 7.64615ZM20.0039 27.7061C16.8872 27.7082 14.0763 25.8324 12.882 22.9536C11.6877 20.0748 12.3454 16.76 14.5483 14.5552C16.7512 12.3505 20.0653 11.6899 22.9452 12.8817C25.825 14.0735 27.7032 16.8828 27.7039 19.9995C27.6993 24.2513 24.2557 27.6979 20.0039 27.7061ZM20.0039 14.9961C17.2425 14.9961 15.0039 17.2347 15.0039 19.9961C15.0039 22.7576 17.2425 24.9961 20.0039 24.9961C22.7653 24.9961 25.0039 22.7576 25.0039 19.9961C24.9975 17.2374 22.7627 15.0026 20.0039 14.9961ZM28.0039 13.8078C27.0129 13.8041 26.2121 12.9988 26.2139 12.0078C26.2157 11.0169 27.0196 10.2145 28.0106 10.2145C29.0015 10.2145 29.8054 11.0168 29.8072 12.0078C29.8077 12.4859 29.6177 12.9445 29.2793 13.2823C28.941 13.62 28.482 13.8091 28.0039 13.8078Z" fill="#2E3A59"/>
</svg>
